<svg width="41" height="40" viewBox="0 0 41 40" fill="none" xmlns="http://www.w3.org/2000/svg">
<g filter="url(#filter0_i)">
<rect x="0.765625" y="0.5" width="39" height="39" rx="19.5" stroke="url(#paint0_linear)"/>
</g>
<path fill-rule="evenodd" clip-rule="evenodd" d="M14.4047 12.4154C14.3156 12.5823 14.2656 12.7962 14.2656 13.0509V25.9487C14.2656 26.2041 14.3157 26.4179 14.4049 26.5847L21.4889 19.4997L14.4047 12.4154ZM14.7121 26.9058C14.9795 27.0542 15.3454 27.0323 15.7475 26.8042L24.0663 22.0771L21.8031 19.8138L14.7121 26.9058ZM24.4674 21.8498L27.1202 20.3425C27.9349 19.8789 27.9349 19.1213 27.1202 18.6583L24.4663 17.1502L22.1172 19.4996L24.4674 21.8498ZM24.0656 16.9226L15.7475 12.196C15.3453 11.9675 14.9794 11.9459 14.712 12.0944L21.8031 19.1854L24.0656 16.9226Z" fill="#E8E9F2"/>
<defs>
<filter id="filter0_i" x="0.265625" y="0" width="43" height="50" filterUnits="userSpaceOnUse" color-interpolation-filters="sRGB">
<feFlood flood-opacity="0" result="BackgroundImageFix"/>
<feBlend mode="normal" in="SourceGraphic" in2="BackgroundImageFix" result="shape"/>
<feColorMatrix in="SourceAlpha" type="matrix" values="0 0 0 0 0 0 0 0 0 0 0 0 0 0 0 0 0 0 127 0" result="hardAlpha"/>
<feOffset dx="3" dy="11"/>
<feGaussianBlur stdDeviation="5"/>
<feComposite in2="hardAlpha" operator="arithmetic" k2="-1" k3="1"/>
<feColorMatrix type="matrix" values="0 0 0 0 0.356203 0 0 0 0 0.22842 0 0 0 0 0.929167 0 0 0 1 0"/>
<feBlend mode="normal" in2="shape" result="effect1_innerShadow"/>
</filter>
<linearGradient id="paint0_linear" x1="21.5384" y1="40.3552" x2="21.5384" y2="2.61354" gradientUnits="userSpaceOnUse">
<stop stop-color="#4D2DD4"/>
<stop offset="1" stop-color="#5737EA"/>
</linearGradient>
</defs>
</svg>
