<svg width="40" height="40" viewBox="0 0 40 40" fill="none" xmlns="http://www.w3.org/2000/svg">
<g filter="url(#filter0_i)">
<rect x="0.5" y="0.5" width="39" height="39" rx="19.5" stroke="url(#paint0_linear)"/>
</g>
<path d="M24.6932 19.5481C24.7103 18.3073 25.4237 17.1332 26.5554 16.4833C25.8414 15.5308 24.6456 14.9269 23.4015 14.8906C22.0745 14.7604 20.788 15.6323 20.1118 15.6323C19.4226 15.6323 18.3814 14.9035 17.2603 14.925C15.799 14.9691 14.4367 15.7452 13.7257 16.9386C12.1974 19.4103 13.3374 23.0428 14.8014 25.0407C15.5338 26.019 16.3899 27.1118 17.51 27.0731C18.6061 27.0306 19.0154 26.4202 20.3385 26.4202C21.6493 26.4202 22.0333 27.0731 23.1762 27.0484C24.3523 27.0306 25.0934 26.0658 25.8001 25.0782C26.3264 24.3811 26.7313 23.6107 27 22.7954C25.6178 22.2493 24.6948 20.95 24.6932 19.5481Z" fill="#E8E9F2"/>
<path d="M22.5345 13.5766C23.1758 12.8575 23.4918 11.9332 23.4153 11C22.4355 11.0961 21.5305 11.5335 20.8806 12.2251C20.245 12.9007 19.9142 13.8088 19.9768 14.7063C20.9569 14.7157 21.9204 14.2902 22.5345 13.5766Z" fill="#E8E9F2"/>
<defs>
<filter id="filter0_i" x="0" y="0" width="43" height="50" filterUnits="userSpaceOnUse" color-interpolation-filters="sRGB">
<feFlood flood-opacity="0" result="BackgroundImageFix"/>
<feBlend mode="normal" in="SourceGraphic" in2="BackgroundImageFix" result="shape"/>
<feColorMatrix in="SourceAlpha" type="matrix" values="0 0 0 0 0 0 0 0 0 0 0 0 0 0 0 0 0 0 127 0" result="hardAlpha"/>
<feOffset dx="3" dy="11"/>
<feGaussianBlur stdDeviation="5"/>
<feComposite in2="hardAlpha" operator="arithmetic" k2="-1" k3="1"/>
<feColorMatrix type="matrix" values="0 0 0 0 0.356203 0 0 0 0 0.22842 0 0 0 0 0.929167 0 0 0 1 0"/>
<feBlend mode="normal" in2="shape" result="effect1_innerShadow"/>
</filter>
<linearGradient id="paint0_linear" x1="21.2727" y1="40.3552" x2="21.2727" y2="2.61354" gradientUnits="userSpaceOnUse">
<stop stop-color="#4D2DD4"/>
<stop offset="1" stop-color="#5737EA"/>
</linearGradient>
</defs>
</svg>
