<svg width="17" height="16" viewBox="0 0 17 16" fill="none" xmlns="http://www.w3.org/2000/svg">
<path d="M9.0332 5.28849C10.6274 4.33126 11.4866 5.68049 10.6694 7.20558C9.85043 8.73679 9.09883 9.73515 8.70946 9.73515C8.32709 9.73515 8.02435 8.70792 7.57636 6.92471C7.11699 5.07762 7.11699 1.74745 5.19553 2.12544C3.37907 2.48418 1 5.32787 1 5.32787L1.56524 6.07248C1.56524 6.07248 2.73771 5.14762 3.12795 5.60786C3.52345 6.07248 5.02054 11.6514 5.51578 12.683C5.94802 13.5868 7.14762 14.7794 8.45834 13.9289C9.78131 13.0732 14.1483 9.34403 14.9306 4.9315C15.7111 0.526847 9.66669 1.44908 9.0332 5.28849Z" fill="white"/>
</svg>
