<svg width="17" height="16" viewBox="0 0 17 16" fill="none" xmlns="http://www.w3.org/2000/svg">
<g clip-path="url(#clip0)">
<path d="M6.78824 7.51988C7.13065 7.35287 7.38951 7.16685 7.5669 6.96584C7.88249 6.60381 8.03822 6.12377 8.03822 5.52872C8.03822 4.94967 7.88249 4.45463 7.57103 4.0396C7.05124 3.36354 6.17151 3.01751 4.92772 2.99951H0V12.7533H4.5946C5.11233 12.7533 5.5919 12.7103 6.03537 12.6223C6.47884 12.5333 6.8625 12.3703 7.18737 12.1323C7.47614 11.9252 7.71748 11.6682 7.90931 11.3652C8.21252 10.9072 8.36412 10.3881 8.36412 9.81007C8.36412 9.25002 8.23108 8.77299 7.96706 8.38095C7.69994 7.98892 7.30804 7.7019 6.78824 7.51988ZM2.03276 4.69365H4.25219C4.74001 4.69365 5.14223 4.74466 5.45782 4.84566C5.82292 4.99268 6.00546 5.2917 6.00546 5.74774C6.00546 6.15677 5.86623 6.44279 5.59087 6.60381C5.31344 6.76482 4.9535 6.84583 4.51209 6.84583H2.03276V4.69365ZM5.54239 10.8892C5.29693 11.0042 4.95144 11.0612 4.509 11.0612H2.03276V8.45996H4.54303C4.98032 8.46296 5.32066 8.51896 5.56405 8.62397C5.99721 8.81399 6.21276 9.16202 6.21276 9.67106C6.21276 10.2711 5.98999 10.6751 5.54239 10.8892Z" fill="white"/>
<path d="M14.9142 3.45459H10.5444V4.66869H14.9142V3.45459Z" fill="white"/>
<path d="M16.4323 8.24585C16.3415 7.68081 16.1414 7.18377 15.83 6.75473C15.4886 6.26869 15.0554 5.91266 14.5284 5.68764C14.0035 5.46162 13.4125 5.34862 12.7545 5.34962C11.65 5.34962 10.7527 5.68464 10.0586 6.3497C9.36661 7.01675 9.02008 7.97583 9.02008 9.22593C9.02008 10.559 9.40271 11.5221 10.1721 12.1132C10.9384 12.7052 11.8232 13.0002 12.8278 13.0002C14.0437 13.0002 14.9894 12.6492 15.665 11.9492C16.0971 11.5071 16.3415 11.0721 16.3952 10.6451H14.382C14.2654 10.8561 14.1303 11.0211 13.9756 11.1411C13.6951 11.3611 13.33 11.4711 12.8824 11.4711C12.4565 11.4711 12.0955 11.3801 11.7944 11.1991C11.2973 10.9091 11.0374 10.401 11.0044 9.67797H16.4983C16.5065 9.05492 16.4859 8.57588 16.4323 8.24585ZM11.0539 8.43287C11.1261 7.96383 11.3014 7.5918 11.5799 7.31678C11.8583 7.04275 12.2523 6.90474 12.7566 6.90374C13.2217 6.90374 13.6105 7.03275 13.9272 7.29178C14.2397 7.5528 14.416 7.93183 14.4521 8.43287H11.0539Z" fill="white"/>
</g>
<defs>
<clipPath id="clip0">
<rect width="16.5" height="16" fill="white"/>
</clipPath>
</defs>
</svg>
