<svg width="108" height="30" viewBox="0 0 108 30" fill="none" xmlns="http://www.w3.org/2000/svg">
<path d="M46.3246 13.2796C44.2538 12.7911 42.4639 12.369 42.4639 10.9245C42.4639 8.98976 44.8469 8.78041 45.871 8.78041C47.2911 8.78041 48.0988 8.9758 49.156 9.45555C49.6689 9.07699 52.0101 7.35163 52.0101 7.35163C50.4661 6.3677 48.1494 5.6001 45.8954 5.6001C40.5239 5.6001 38.6102 8.45593 38.6102 11.1303C38.6102 14.9805 41.958 15.7813 44.9115 16.4896C46.9858 16.9868 48.7774 17.4159 48.7774 18.8831C48.7774 19.6367 48.3291 20.8981 45.3215 20.8981C43.3257 20.8981 41.138 20.1968 39.5854 19.0645L38.2805 22.0495C39.8628 23.2829 42.6069 24.0766 45.297 24.0766C49.7526 24.0766 52.6329 21.9169 52.6329 18.5726C52.6311 14.7677 49.2798 13.9774 46.3246 13.2796Z" fill="white"/>
<path d="M68.9477 14.5599L68.7628 14.4988L68.9337 14.4064C70.4027 13.6091 71.2121 12.2274 71.2121 10.5143C71.2121 7.63227 68.768 5.9104 64.677 5.9104H56.2177V23.7694H65.176C69.6316 23.7694 72.0861 22.0527 72.0861 18.9352C72.0879 16.8138 70.9435 15.2193 68.9477 14.5599ZM60.0732 8.88486H64.1798C66.7688 8.88486 67.3113 10.0781 67.3113 11.0673C67.3113 12.5031 66.2279 13.2497 64.1798 13.2497H60.0732V8.88486ZM60.0732 13.2497H64.1798H60.0732ZM64.8777 20.7966H60.0714V16.2242H64.8777C67.0723 16.2242 68.1836 16.9848 68.1836 18.5095C68.1853 20.0395 67.1037 20.7966 64.8777 20.7966Z" fill="white"/>
<path d="M85.1439 8.88486L89.179 5.9104H75.6762V23.7694H89.179V20.7966H79.5299V16.2242H87.7607V13.2497H79.5299V8.88486H85.1439Z" fill="white"/>
<path d="M107.999 23.7692L104.076 17.9668C106.391 16.9567 107.725 14.9679 107.725 12.3005C107.725 8.3578 104.81 5.90845 100.119 5.90845H92.7677V23.7674H96.6214V18.7082H100.119C100.229 18.7082 100.337 18.7047 100.445 18.703L103.87 23.7674H107.999V23.7692ZM96.6214 8.88465H100.037C102.506 8.88465 103.867 10.1023 103.867 12.3109C103.867 14.5195 102.508 15.7372 100.037 15.7372H96.6214V8.88465Z" fill="white"/>
<path d="M29.68 14.8409C29.68 13.9337 29.598 13.044 29.4428 12.1822L26.2485 14.5356C26.252 14.6368 26.252 14.738 26.252 14.8409C26.252 21.1335 21.1317 26.2537 14.8391 26.2537C8.54655 26.2537 3.4263 21.1335 3.4263 14.8409C3.4263 8.5483 8.5483 3.42804 14.8409 3.42804C17.2257 3.42804 19.4413 4.16424 21.2748 5.42032L24.162 3.29371C21.6132 1.2334 18.3701 0 14.8409 0C6.64499 0 0 6.64499 0 14.8409C0 23.0368 6.64499 29.6818 14.8409 29.6818C23.0368 29.6818 29.68 23.0368 29.68 14.8409Z" fill="white"/>
<path d="M26.5829 5.76709C27.2842 6.67251 27.8826 7.66167 28.3606 8.71712L14.8386 18.682L9.18976 15.1406V10.8804L14.8386 14.4218L26.5829 5.76709Z" fill="white"/>
</svg>
